<svg xmlns="http://www.w3.org/2000/svg" width="180" height="50" viewBox="0 0 92 34" fill="none">
    <circle cx="16.5" cy="17" r="15.4" fill="#ffffff" />
    <path d="M56.5398 30.615C55.8112 30.615 55.2221 30.615 54.5555 30.615C55.0154 29.9427 54.9896 29.2188 54.9844 28.4948C54.9793 26.5246 54.9948 24.5544 54.9741 22.5841C54.9689 22.1446 54.8707 21.7102 54.8087 21.2345C55.5115 21.2345 56.2814 21.2345 57.134 21.2345C58.0021 23.4012 58.8857 25.5886 59.8261 27.9311C60.6787 25.6093 61.4796 23.4167 62.2857 21.2241C63.1486 21.2241 63.9496 21.2241 64.6678 21.2241C64.6006 21.7309 64.487 22.2066 64.4818 22.6876C64.4611 24.7767 64.4559 26.8659 64.4818 28.9499C64.487 29.4773 64.6213 30.01 64.704 30.5788C64.0581 30.5788 63.3243 30.5788 62.6526 30.5788C62.7611 30.072 62.9575 29.5756 62.9626 29.074C62.9988 26.9486 62.9781 24.8233 62.9368 22.6876C61.769 25.3921 60.8596 28.1949 59.5936 30.8891C58.3173 28.2311 57.2993 25.4955 56.054 22.822C56.054 23.0392 56.054 23.2512 56.054 23.4684C56.054 25.2732 56.0644 27.0727 56.0489 28.8775C56.0385 29.467 56.0592 30.0255 56.5398 30.615Z" fill="#ffffff" />
    <path d="M66.3678 21.193C67.148 21.193 67.7319 21.193 68.321 21.193C69.1064 21.193 69.8918 21.1568 70.6721 21.2085C71.1371 21.2344 71.6229 21.3223 72.0466 21.5033C73.6329 22.191 73.8138 24.1768 72.4031 25.1748C72.1758 25.3351 71.9329 25.4747 71.6539 25.6505C72.0362 25.8419 72.3773 25.9815 72.6925 26.1728C74.315 27.1554 74.2995 29.1514 72.6408 30.0564C72.1499 30.3253 71.5815 30.5683 71.039 30.5942C69.5508 30.6666 68.0523 30.62 66.4866 30.62C66.9362 29.9788 66.9672 29.3066 66.9672 28.6188C66.9672 26.6486 66.9672 24.6835 66.9672 22.7133C66.9672 22.1962 66.962 21.6739 66.3678 21.193ZM68.3468 29.7358C69.2149 29.7358 69.9952 29.7823 70.7703 29.7254C71.597 29.6634 72.1086 29.0687 72.2429 28.1637C72.3463 27.4811 71.9742 26.8658 71.256 26.5296C70.6824 26.2607 68.9979 26.2194 68.3417 26.4624C68.3468 27.538 68.3468 28.6136 68.3468 29.7358ZM68.3313 25.242C69.0134 25.242 69.6232 25.273 70.2277 25.2317C70.7186 25.2006 71.1268 24.9473 71.4368 24.5646C72.0983 23.7527 71.7675 22.4496 70.7806 22.1807C69.9849 21.9635 69.1581 22.01 68.3313 22.129C68.3313 23.1891 68.3313 24.1819 68.3313 25.242Z" fill="#ffffff" />
    <path d="M74.9713 26.0385C74.9661 24.4199 75.4157 23.122 76.4956 22.1084C78.2421 20.4692 80.8361 20.7794 82.2984 22.3825C84.1689 24.4303 83.9829 28.2311 81.7558 29.9841C79.9473 31.4062 77.374 31.0753 76.0202 29.2188C75.2968 28.2156 74.9506 27.109 74.9713 26.0385ZM81.8127 25.992C81.7662 25.418 81.7662 24.8388 81.6525 24.2855C81.5492 23.7839 81.3735 23.2823 81.1306 22.8272C80.8051 22.217 80.2677 21.8602 79.5443 21.7775C78.1853 21.6223 77.3689 22.5376 77.0537 23.5408C76.7075 24.6371 76.6661 25.78 76.7798 26.9073C76.8625 27.6933 76.9452 28.5103 77.4774 29.1774C78.0561 29.8962 78.7744 30.2324 79.7148 30.0462C80.4589 29.9014 80.9187 29.436 81.2598 28.8051C81.7352 27.926 81.7145 26.9435 81.8127 25.992Z" fill="#ffffff" />
    <path d="M48.3445 12.5468C48.6649 13.0122 48.9491 13.5035 49.3108 13.9327C49.9929 14.7446 50.8299 15.2979 51.9564 15.2151C52.9898 15.1376 53.5841 14.4033 53.4704 13.3794C53.4136 12.8674 53.1449 12.4744 52.6901 12.2624C52.1993 12.04 51.6722 11.8797 51.1555 11.7143C50.6594 11.5539 50.1427 11.4557 49.657 11.2695C48.3703 10.7783 47.7761 9.58373 48.0603 8.24439C48.4789 6.29486 50.4631 5.54504 52.1114 6.2328C52.9072 6.56376 52.9123 6.55342 53.6254 6.42931C53.6254 6.81197 53.6254 7.1843 53.6254 7.5618C53.6254 7.93929 53.6254 8.31679 53.6254 8.83908C53.4239 8.59603 53.3309 8.45124 53.2017 8.3323C52.7521 7.91344 52.3181 7.47906 51.8376 7.10673C51.3983 6.77061 50.8558 6.76543 50.3339 6.86886C49.7862 6.97745 49.3469 7.27738 49.2229 7.84621C49.0886 8.4409 49.2126 9.02524 49.75 9.36137C50.184 9.63027 50.6956 9.78023 51.1865 9.94054C51.7704 10.1267 52.3853 10.2301 52.9692 10.4318C54.354 10.9179 54.9172 11.8694 54.7674 13.3587C54.6485 14.5429 53.6357 15.634 52.4473 15.8357C51.5895 15.9805 50.7473 15.9132 49.9308 15.603C49.2333 15.3392 49.0834 15.3289 48.2877 15.5047C48.1481 15.0238 48.236 14.5274 48.2205 14.0465C48.205 13.5552 48.2153 13.0588 48.2153 12.5675C48.2567 12.552 48.298 12.552 48.3445 12.5468Z" fill="#ffffff" />
    <path d="M44.3192 21.25C44.3192 22.0826 44.3192 22.8531 44.3192 23.6805C43.9472 23.2616 43.6475 22.8376 43.26 22.5118C42.8879 22.1964 42.4539 21.9119 41.9992 21.7413C41.3843 21.5086 40.7745 21.6844 40.2733 22.1085C39.8444 22.4704 39.8186 22.9824 39.9374 23.484C40.0769 24.0735 40.5317 24.3993 41.0639 24.5751C41.6426 24.7664 42.2523 24.8802 42.8466 25.0353C43.1411 25.1129 43.4356 25.206 43.7198 25.3146C45.4819 26.0023 46.0606 27.9726 44.9496 29.5136C44.1125 30.6771 42.9189 30.9046 41.5961 30.7236C41.2706 30.6771 40.945 30.584 40.6402 30.4599C40.0976 30.2324 39.5654 30.0617 38.9557 30.4599C38.9557 29.3998 38.9557 28.4225 38.9557 27.321C39.1107 27.533 39.2295 27.6623 39.3174 27.8123C39.7152 28.4949 40.1855 29.1206 40.8469 29.5653C41.4979 30.0048 42.2007 30.2324 42.9964 30.0152C43.6268 29.8445 44.0557 29.4877 44.1642 28.8258C44.2779 28.138 44.097 27.5278 43.4666 27.1762C43.0378 26.9383 42.552 26.7935 42.0818 26.6436C41.5651 26.4781 41.0225 26.3747 40.511 26.1989C39.2502 25.7593 38.7438 25.0457 38.7335 23.7684C38.7231 22.4497 39.3432 21.4621 40.5058 21.0535C41.2654 20.7846 42.0508 20.795 42.7949 21.1052C43.2806 21.3173 43.756 21.4672 44.3192 21.25Z" fill="#ffffff" />
    <path d="M42.9034 5.30713C43.0895 5.70531 43.2238 5.95353 43.322 6.20691C44.3296 8.76148 45.3217 11.316 46.3345 13.8706C46.5825 14.5015 46.877 15.1169 47.1612 15.7633C46.5773 15.7633 45.9573 15.7633 45.332 15.7633C45.2545 14.5687 44.5725 13.5758 44.2159 12.3761C43.1411 12.3503 42.0819 12.3606 40.9967 12.3761C40.6919 13.1104 40.3922 13.7982 40.1235 14.5015C39.9478 14.9617 40.0408 15.3858 40.5627 15.7633C39.7876 15.7633 39.1262 15.7633 38.439 15.7633C39.4621 14.4549 39.8238 12.8674 40.449 11.4039C41.1828 9.68195 41.839 7.93409 42.5366 6.19657C42.6244 5.94836 42.7329 5.71565 42.9034 5.30713ZM41.2706 11.6677C42.2265 11.647 43.0326 11.709 43.9111 11.6263C43.4822 10.5404 43.0895 9.5475 42.6968 8.55463C42.6451 8.55463 42.5934 8.55463 42.5366 8.55463C42.1335 9.5475 41.7305 10.5352 41.2706 11.6677Z" fill="#ffffff" />
    <path d="M67.8508 15.7841C67.1997 15.7841 66.5383 15.7841 65.9182 15.7841C65.9182 15.5566 65.9751 15.3342 65.9079 15.1584C65.5772 14.2483 65.2103 13.3536 64.8434 12.4125C63.7687 12.4125 62.7145 12.4125 61.6036 12.4125C61.3039 13.1623 61.0042 13.907 60.7097 14.6516C60.534 15.1015 60.8285 15.4066 61.154 15.7738C60.3841 15.7738 59.7331 15.7738 58.9941 15.7738C59.6762 15.1791 59.8932 14.3827 60.1929 13.6277C61.2212 11.0576 62.2495 8.48756 63.2778 5.92265C63.3398 5.76752 63.407 5.61756 63.531 5.31763C63.6911 5.64341 63.81 5.85543 63.8978 6.07262C64.9881 8.84437 66.0732 11.6213 67.1739 14.393C67.3599 14.8481 67.6027 15.2825 67.8508 15.7841ZM64.5386 11.6316C64.1097 10.525 63.7118 9.50111 63.2571 8.3376C62.7817 9.51145 62.358 10.5457 61.9188 11.6316C62.8076 11.6316 63.6291 11.6316 64.5386 11.6316Z" fill="#ffffff" />
    <path d="M50.0187 25.8936C50.6801 24.6267 51.2847 23.5355 51.8169 22.4031C51.9719 22.0773 51.9151 21.6532 51.9564 21.2344C52.4008 21.2344 52.9589 21.2344 53.5376 21.2344C52.3698 22.9254 51.5896 24.7818 50.6181 26.5348C50.4063 27.7035 50.4424 28.8774 50.6078 30.0461C50.6336 30.2322 50.799 30.3977 50.9178 30.6046C50.1479 30.6046 49.4245 30.6046 48.6287 30.6046C49.0886 29.9375 48.9336 29.2342 49.0059 28.5619C49.1248 27.3984 48.8096 26.4056 48.1534 25.4385C47.2388 24.094 46.4223 22.6771 45.5336 21.2447C46.164 21.2447 46.7634 21.2447 47.2956 21.2447C48.1844 22.7599 49.0628 24.2595 50.0187 25.8936Z" fill="#ffffff" />
    <path d="M85.1249 21.2344C85.7501 21.2344 86.3857 21.2344 86.9747 21.2344C86.9282 21.7101 86.8456 22.1497 86.8404 22.5892C86.8249 24.6991 86.8352 26.8141 86.8352 28.9239C86.8352 29.0894 86.8404 29.2549 86.8507 29.4204C86.8714 29.6996 87.0161 29.8702 87.3003 29.8702C88.0857 29.8754 88.8763 29.9375 89.6514 29.8392C90.0699 29.7875 90.4575 29.4669 90.8398 29.2445C91.0207 29.1411 91.1654 28.9808 91.4547 28.9032C91.3514 29.4617 91.248 30.0202 91.1395 30.6046C89.0468 30.6046 87.0109 30.6046 84.882 30.6046C85.4349 29.8289 85.2437 28.9756 85.2489 28.1482C85.2644 26.2711 85.2644 24.3991 85.2489 22.522C85.2541 22.1031 85.1714 21.6894 85.1249 21.2344Z" fill="#ffffff" />
    <path d="M58.121 15.7788C57.4647 15.7788 56.8085 15.7788 56.2349 15.7788C56.2918 15.1272 56.3848 14.5015 56.3899 13.8758C56.4106 11.8849 56.4106 9.89912 56.3899 7.90822C56.3848 7.40144 56.2814 6.89467 56.2194 6.33618C56.7568 6.33618 57.3769 6.33618 58.0228 6.33618C57.7954 7.72206 57.9349 9.12862 57.9091 10.5352C57.8884 11.9314 57.8936 13.3276 57.9143 14.729C57.9246 15.0651 58.0435 15.4013 58.121 15.7788Z" fill="#ffffff" />
    <path d="M16.2096 0.787354L4.45932 21.2239C4.38698 21.3428 4.31463 21.4617 4.2578 21.5807C3.63773 22.7183 3.29152 24.0163 3.29152 25.4022C3.29152 25.9503 3.3432 26.4881 3.44654 27.0001C2.98666 26.4157 2.57328 25.8003 2.19607 25.1591C0.795753 22.7597 0 19.9724 0 16.999C0 8.04769 7.25479 0.787354 16.2044 0.787354H16.2096ZM16.2148 0.787354L30.0733 24.9781C30.1353 25.0092 30.1921 25.0454 30.2438 25.0712C31.6183 22.6925 32.3985 19.9414 32.3985 16.9938C32.4037 8.05286 25.1541 0.792525 16.2148 0.787354Z" fill="url(#paint0_linear_1335_2709)" />
    <path d="M30.249 25.0765C30.2387 25.1127 30.2128 25.1386 30.187 25.1799C28.9985 27.0157 29.3757 26.4676 28.9055 27.0622C28.3991 27.7035 27.8462 28.3033 27.252 28.8618C24.5754 31.3595 21.072 32.8747 17.4239 33.1642C16.2355 33.2573 15.0418 33.2159 13.8585 33.0505C11.709 32.7505 9.5129 31.9542 7.65787 30.8217C5.68399 29.6168 4.13382 27.388 5.30161 25.0455C6.36606 22.915 9.13053 22.1962 11.2439 21.6894C13.6157 21.1154 15.9771 21.0275 18.2248 21.2343C23.2629 21.7049 27.6757 23.67 30.0785 24.9783C30.1353 25.0093 30.1921 25.0455 30.249 25.0765Z" fill="url(#paint1_linear_1335_2709)" />
    <defs>
        <linearGradient id="paint0_linear_1335_2709" x1="0" y1="13.8935" x2="32.4039" y2="13.8935" gradientUnits="userSpaceOnUse">
            <stop stop-color="#006DCF" />
            <stop offset="0.0687" stop-color="#0067C7" />
            <stop offset="0.4807" stop-color="#00499E" />
            <stop offset="0.8052" stop-color="#003684" />
            <stop offset="1" stop-color="#002F7B" />
        </linearGradient>
        <linearGradient id="paint1_linear_1335_2709" x1="11.5245" y1="19.3754" x2="22.7123" y2="32.6983" gradientUnits="userSpaceOnUse">
            <stop stop-color="#28942D" />
            <stop offset="0.4291" stop-color="#136D24" />
            <stop offset="0.7858" stop-color="#05531D" />
            <stop offset="1" stop-color="#004A1B" />
        </linearGradient>
    </defs>
</svg>
